<svg xmlns="http://www.w3.org/2000/svg" style="display:none">

  <!-- GAME SYMBOLS -->

  <symbol id="icon-cherry" viewBox="0 0 48 48">
    <g fill="none" stroke="currentColor" stroke-linecap="round" stroke-linejoin="round">
      <!-- Stem -->
      <path d="M24 8 C24 8 28 4 34 6 C38 7 36 12 32 11" stroke-width="2.2" fill="none"/>
      <path d="M24 8 L20 16" stroke-width="2.2"/>
      <path d="M24 8 L28 18" stroke-width="2.2"/>
      <!-- Leaf -->
      <ellipse cx="28.5" cy="9.5" rx="4" ry="2" transform="rotate(-30 28.5 9.5)" fill="currentColor" opacity="0.7"/>
      <!-- Left cherry -->
      <circle cx="17" cy="30" r="10" fill="currentColor" opacity="0.9"/>
      <circle cx="14" cy="26" r="2.5" fill="white" opacity="0.4"/>
      <!-- Right cherry -->
      <circle cx="31" cy="30" r="10" fill="currentColor" opacity="0.9"/>
      <circle cx="28" cy="26" r="2.5" fill="white" opacity="0.4"/>
    </g>
  </symbol>

  <symbol id="icon-lemon" viewBox="0 0 48 48">
    <g fill="none" stroke="currentColor">
      <!-- Lemon shape -->
      <ellipse cx="24" cy="24" rx="18" ry="13" fill="currentColor" opacity="0.85" stroke-width="1.5"/>
      <!-- Tips -->
      <ellipse cx="6.5" cy="24" rx="3" ry="2" fill="currentColor" stroke-width="0"/>
      <ellipse cx="41.5" cy="24" rx="3" ry="2" fill="currentColor" stroke-width="0"/>
      <!-- Segment lines -->
      <line x1="24" y1="11" x2="24" y2="37" stroke="white" stroke-width="1.2" opacity="0.5"/>
      <line x1="9" y1="18" x2="39" y2="30" stroke="white" stroke-width="1.2" opacity="0.5"/>
      <line x1="9" y1="30" x2="39" y2="18" stroke="white" stroke-width="1.2" opacity="0.5"/>
      <!-- Shine -->
      <ellipse cx="17" cy="18" rx="4" ry="2.5" transform="rotate(-20 17 18)" fill="white" opacity="0.35" stroke-width="0"/>
    </g>
  </symbol>

  <symbol id="icon-orange" viewBox="0 0 48 48">
    <g fill="none" stroke="currentColor">
      <circle cx="24" cy="25" r="18" fill="currentColor" opacity="0.85" stroke-width="1.5"/>
      <!-- Peel texture arcs -->
      <path d="M10 20 Q24 14 38 20" stroke="white" stroke-width="1" opacity="0.4" fill="none"/>
      <path d="M8 28 Q24 22 40 28" stroke="white" stroke-width="1" opacity="0.4" fill="none"/>
      <path d="M10 34 Q24 30 38 34" stroke="white" stroke-width="0.8" opacity="0.3" fill="none"/>
      <!-- Vertical lines -->
      <path d="M24 7 Q26 16 24 25 Q22 34 24 43" stroke="white" stroke-width="0.8" opacity="0.3" fill="none"/>
      <path d="M14 9 Q16 18 15 25 Q14 32 16 41" stroke="white" stroke-width="0.8" opacity="0.25" fill="none"/>
      <path d="M34 9 Q32 18 33 25 Q34 32 32 41" stroke="white" stroke-width="0.8" opacity="0.25" fill="none"/>
      <!-- Stem -->
      <path d="M24 7 C22 3 26 2 25 6" stroke="currentColor" stroke-width="2" fill="none" opacity="0.7"/>
      <!-- Shine -->
      <ellipse cx="17" cy="18" rx="4" ry="3" transform="rotate(-20 17 18)" fill="white" opacity="0.3" stroke-width="0"/>
    </g>
  </symbol>

  <symbol id="icon-grape" viewBox="0 0 48 48">
    <g fill="none" stroke="currentColor">
      <!-- Stem -->
      <path d="M24 4 L24 12" stroke-width="2.2"/>
      <!-- Leaf -->
      <path d="M24 8 C20 6 16 8 17 12 C18 14 22 13 24 12 C26 13 30 14 31 12 C32 8 28 6 24 8Z" fill="currentColor" opacity="0.6"/>
      <!-- Top row: 3 grapes -->
      <circle cx="15" cy="20" r="6" fill="currentColor" opacity="0.9"/>
      <circle cx="24" cy="18" r="6" fill="currentColor" opacity="0.9"/>
      <circle cx="33" cy="20" r="6" fill="currentColor" opacity="0.9"/>
      <!-- Middle row: 2 grapes -->
      <circle cx="19" cy="31" r="6" fill="currentColor" opacity="0.9"/>
      <circle cx="29" cy="31" r="6" fill="currentColor" opacity="0.9"/>
      <!-- Bottom grape -->
      <circle cx="24" cy="41" r="6" fill="currentColor" opacity="0.9"/>
      <!-- Shine highlights -->
      <circle cx="12.5" cy="17.5" r="2" fill="white" opacity="0.35" stroke-width="0"/>
      <circle cx="21.5" cy="15.5" r="2" fill="white" opacity="0.35" stroke-width="0"/>
      <circle cx="30.5" cy="17.5" r="2" fill="white" opacity="0.35" stroke-width="0"/>
    </g>
  </symbol>

  <symbol id="icon-diamond" viewBox="0 0 48 48">
    <g fill="none" stroke="currentColor" stroke-linejoin="round">
      <!-- Main diamond -->
      <polygon points="24,4 44,18 24,46 4,18" fill="currentColor" opacity="0.85" stroke-width="1.5"/>
      <!-- Top facet -->
      <polygon points="24,4 44,18 24,20 4,18" fill="white" opacity="0.25" stroke-width="0"/>
      <!-- Interior reflection lines -->
      <line x1="4" y1="18" x2="44" y2="18" stroke="white" stroke-width="1" opacity="0.5"/>
      <line x1="24" y1="4" x2="4" y2="18" stroke="white" stroke-width="0.8" opacity="0.3"/>
      <line x1="24" y1="4" x2="44" y2="18" stroke="white" stroke-width="0.8" opacity="0.3"/>
      <line x1="24" y1="20" x2="14" y2="31" stroke="white" stroke-width="0.7" opacity="0.2"/>
      <line x1="24" y1="20" x2="34" y2="31" stroke="white" stroke-width="0.7" opacity="0.2"/>
      <!-- Shine -->
      <polygon points="14,13 20,18 16,22 10,17" fill="white" opacity="0.3" stroke-width="0"/>
    </g>
  </symbol>

  <symbol id="icon-crown" viewBox="0 0 48 48">
    <g fill="none" stroke="currentColor" stroke-linejoin="round">
      <!-- Crown body -->
      <path d="M4 36 L8 16 L16 26 L24 8 L32 26 L40 16 L44 36 Z" fill="currentColor" opacity="0.9" stroke-width="1.5"/>
      <!-- Base band -->
      <rect x="4" y="36" width="40" height="6" rx="2" fill="currentColor" opacity="0.7" stroke-width="0"/>
      <!-- Jewels on crown points -->
      <circle cx="24" cy="10" r="3" fill="white" opacity="0.6" stroke-width="0"/>
      <circle cx="8" cy="18" r="2.5" fill="white" opacity="0.5" stroke-width="0"/>
      <circle cx="40" cy="18" r="2.5" fill="white" opacity="0.5" stroke-width="0"/>
      <!-- Center jewel on band -->
      <circle cx="24" cy="39" r="2" fill="white" opacity="0.5" stroke-width="0"/>
      <!-- Side jewels on band -->
      <circle cx="14" cy="39" r="1.5" fill="white" opacity="0.4" stroke-width="0"/>
      <circle cx="34" cy="39" r="1.5" fill="white" opacity="0.4" stroke-width="0"/>
      <!-- Shine line -->
      <path d="M10 30 L38 30" stroke="white" stroke-width="0.8" opacity="0.3"/>
    </g>
  </symbol>

  <symbol id="icon-card" viewBox="0 0 48 48">
    <g fill="none" stroke="currentColor">
      <rect x="6" y="4" width="36" height="40" rx="4" fill="currentColor" opacity="0.15" stroke-width="1.5"/>
      <!-- Suit pattern - spades in corners -->
      <text x="9" y="17" font-family="serif" font-size="10" fill="currentColor" opacity="0.9">A</text>
      <path d="M10 20 C10 17 13 15 13 18 C13 15 16 17 16 20 C16 22 13 21 13 21 L14 24 L12 24 Z" fill="currentColor" opacity="0.8"/>
      <!-- Center suit -->
      <path d="M19 26 C19 20 24 17 24 22 C24 17 29 20 29 26 C29 30 24 28 24 28 L26 33 L22 33 Z" fill="currentColor" opacity="0.85"/>
      <!-- Bottom corner -->
      <text x="31" y="42" font-family="serif" font-size="10" fill="currentColor" opacity="0.9" transform="rotate(180 34 39)">A</text>
    </g>
  </symbol>

  <symbol id="icon-lightning" viewBox="0 0 48 48">
    <g fill="none" stroke="currentColor">
      <!-- Outer bolt -->
      <polygon points="28,4 14,26 22,26 20,44 34,22 26,22" fill="currentColor" opacity="0.9" stroke-width="1"/>
      <!-- Inner glow lines -->
      <polygon points="27,10 17,26 23,26 21,38 31,24 25,24" fill="white" opacity="0.3" stroke-width="0"/>
      <!-- Side glow -->
      <line x1="36" y1="10" x2="38" y2="18" stroke="currentColor" stroke-width="1.5" opacity="0.4"/>
      <line x1="38" y1="14" x2="42" y2="20" stroke="currentColor" stroke-width="1" opacity="0.3"/>
    </g>
  </symbol>

  <symbol id="icon-seven" viewBox="0 0 48 48">
    <g fill="none" stroke="currentColor" stroke-linecap="round" stroke-linejoin="round">
      <!-- Stylized 7 with serif -->
      <path d="M8 8 L40 8 L22 44 L18 44 L35 12 L8 12 Z" fill="currentColor" opacity="0.9" stroke-width="1"/>
      <!-- Top serif -->
      <line x1="8" y1="8" x2="40" y2="8" stroke-width="4" stroke-linecap="square"/>
      <!-- Crossbar detail -->
      <line x1="17" y1="26" x2="30" y2="26" stroke-width="2.5" opacity="0.7"/>
      <!-- Shine -->
      <line x1="30" y1="10" x2="24" y2="22" stroke="white" stroke-width="1.5" opacity="0.4"/>
    </g>
  </symbol>

  <symbol id="icon-bar" viewBox="0 0 48 48">
    <g fill="none" stroke="currentColor">
      <!-- Classic BAR rectangle -->
      <rect x="4" y="12" width="40" height="24" rx="3" fill="currentColor" opacity="0.9" stroke-width="1.5"/>
      <!-- Inner border -->
      <rect x="7" y="15" width="34" height="18" rx="2" fill="none" stroke="white" stroke-width="1" opacity="0.4"/>
      <!-- BAR text lines (stylized bars) -->
      <rect x="11" y="19" width="8" height="10" rx="1" fill="white" opacity="0.7"/>
      <rect x="10" y="19" width="9" height="3" rx="1" fill="white" opacity="0.8"/>
      <rect x="10" y="26" width="9" height="3" rx="1" fill="white" opacity="0.8"/>
      <rect x="10" y="29" width="9" height="2.5" rx="1" fill="white" opacity="0.8"/>
      <!-- A -->
      <path d="M23 29 L26.5 19 L30 29 M24.5 25 L28.5 25" stroke="white" stroke-width="2" fill="none"/>
      <!-- R -->
      <path d="M33 29 L33 19 L37 19 C39 19 40 21 38 23 L33 23 L37 29" stroke="white" stroke-width="2" fill="none"/>
    </g>
  </symbol>

  <symbol id="icon-bell" viewBox="0 0 48 48">
    <g fill="none" stroke="currentColor" stroke-linecap="round" stroke-linejoin="round">
      <!-- Bell body -->
      <path d="M24 6 C14 6 10 14 10 22 L10 32 C10 34 8 36 8 36 L40 36 C40 36 38 34 38 32 L38 22 C38 14 34 6 24 6 Z" fill="currentColor" opacity="0.85" stroke-width="1.5"/>
      <!-- Bell top -->
      <circle cx="24" cy="6" r="3" fill="currentColor" opacity="0.9"/>
      <!-- Clapper -->
      <line x1="24" y1="36" x2="24" y2="42" stroke-width="2.5"/>
      <circle cx="24" cy="43" r="3" fill="currentColor" opacity="0.9"/>
      <!-- Shine highlight -->
      <path d="M15 14 Q18 10 22 12" stroke="white" stroke-width="1.5" opacity="0.5" fill="none"/>
      <!-- Base line -->
      <line x1="8" y1="36" x2="40" y2="36" stroke-width="2"/>
    </g>
  </symbol>

  <symbol id="icon-star" viewBox="0 0 48 48">
    <g fill="none" stroke="currentColor" stroke-linejoin="round">
      <!-- 5-point star -->
      <polygon points="24,4 29,18 44,18 32,27 36,42 24,33 12,42 16,27 4,18 19,18" fill="currentColor" opacity="0.9" stroke-width="1.5"/>
      <!-- Facet lines -->
      <line x1="24" y1="4" x2="24" y2="33" stroke="white" stroke-width="0.8" opacity="0.25"/>
      <line x1="4" y1="18" x2="36" y2="42" stroke="white" stroke-width="0.8" opacity="0.25"/>
      <line x1="44" y1="18" x2="12" y2="42" stroke="white" stroke-width="0.8" opacity="0.25"/>
      <!-- Center shine -->
      <circle cx="24" cy="24" r="4" fill="white" opacity="0.2" stroke-width="0"/>
    </g>
  </symbol>

  <!-- UI ICONS -->

  <symbol id="icon-coin" viewBox="0 0 48 48">
    <g fill="none" stroke="currentColor">
      <!-- Ridged edge -->
      <circle cx="24" cy="24" r="20" fill="currentColor" opacity="0.8" stroke-width="1.5"/>
      <circle cx="24" cy="24" r="17" fill="currentColor" opacity="0.9" stroke-width="0"/>
      <!-- Ridge marks -->
      <circle cx="24" cy="24" r="20" fill="none" stroke="currentColor" stroke-width="3" stroke-dasharray="3 2" opacity="0.5"/>
      <!-- Inner design -->
      <circle cx="24" cy="24" r="13" fill="none" stroke="white" stroke-width="1" opacity="0.4"/>
      <!-- Shine glint -->
      <ellipse cx="17" cy="17" rx="4" ry="2.5" transform="rotate(-45 17 17)" fill="white" opacity="0.5" stroke-width="0"/>
      <line x1="14" y1="14" x2="17" y2="11" stroke="white" stroke-width="1.5" opacity="0.6"/>
    </g>
  </symbol>

  <symbol id="icon-trophy" viewBox="0 0 48 48">
    <g fill="none" stroke="currentColor" stroke-linecap="round" stroke-linejoin="round">
      <!-- Cup body -->
      <path d="M12 6 L12 24 C12 32 18 38 24 38 C30 38 36 32 36 24 L36 6 Z" fill="currentColor" opacity="0.85" stroke-width="1.5"/>
      <!-- Left handle -->
      <path d="M12 10 C8 10 5 13 5 18 C5 23 8 26 12 24" stroke-width="2" fill="none"/>
      <!-- Right handle -->
      <path d="M36 10 C40 10 43 13 43 18 C43 23 40 26 36 24" stroke-width="2" fill="none"/>
      <!-- Stem -->
      <line x1="24" y1="38" x2="24" y2="44" stroke-width="3"/>
      <!-- Base -->
      <rect x="14" y="44" width="20" height="3" rx="1.5" fill="currentColor" opacity="0.9"/>
      <!-- Stars on cup -->
      <circle cx="24" cy="20" r="3" fill="white" opacity="0.5" stroke-width="0"/>
      <path d="M24 15 L25 18 L28 18 L25.5 20 L26.5 23 L24 21 L21.5 23 L22.5 20 L20 18 L23 18 Z" fill="white" opacity="0.6"/>
      <!-- Shine -->
      <path d="M16 10 Q18 8 20 10" stroke="white" stroke-width="1.2" opacity="0.5" fill="none"/>
    </g>
  </symbol>

  <symbol id="icon-fire" viewBox="0 0 48 48">
    <g fill="none" stroke="currentColor" stroke-linecap="round">
      <!-- Outer flame -->
      <path d="M24 44 C14 44 8 36 8 28 C8 20 14 14 16 8 C17 12 16 16 18 18 C18 12 22 6 24 4 C24 10 22 14 26 18 C27 14 30 10 30 6 C34 12 40 18 40 28 C40 36 34 44 24 44 Z" fill="currentColor" opacity="0.9"/>
      <!-- Inner lighter flame -->
      <path d="M24 40 C18 40 15 34 15 28 C15 24 17 20 20 18 C19 22 20 26 22 28 C22 24 24 20 26 18 C26 22 25 26 28 28 C30 26 30 22 28 18 C32 22 33 28 33 32 C33 38 29 40 24 40 Z" fill="white" opacity="0.3"/>
    </g>
  </symbol>

  <symbol id="icon-skull" viewBox="0 0 48 48">
    <g fill="none" stroke="currentColor" stroke-linecap="round" stroke-linejoin="round">
      <!-- Skull dome -->
      <path d="M8 28 C8 14 16 6 24 6 C32 6 40 14 40 28 L40 34 L8 34 Z" fill="currentColor" opacity="0.85" stroke-width="1.5"/>
      <!-- Jaw -->
      <path d="M8 34 L8 38 C8 41 10 42 12 42 L36 42 C38 42 40 41 40 38 L40 34" fill="currentColor" opacity="0.7" stroke-width="1.5"/>
      <!-- Teeth -->
      <rect x="12" y="38" width="5" height="4" rx="1" fill="white" opacity="0.8"/>
      <rect x="19" y="38" width="5" height="4" rx="1" fill="white" opacity="0.8"/>
      <rect x="26" y="38" width="5" height="4" rx="1" fill="white" opacity="0.8"/>
      <!-- Eye sockets -->
      <ellipse cx="17" cy="24" rx="5" ry="6" fill="white" opacity="0.15"/>
      <ellipse cx="31" cy="24" rx="5" ry="6" fill="white" opacity="0.15"/>
      <!-- Nose -->
      <path d="M22 30 L24 27 L26 30 L24 31 Z" fill="white" opacity="0.2"/>
    </g>
  </symbol>

  <symbol id="icon-gem" viewBox="0 0 48 48">
    <g fill="none" stroke="currentColor" stroke-linejoin="round">
      <!-- Octagonal gem -->
      <polygon points="18,4 30,4 42,16 42,32 30,44 18,44 6,32 6,16" fill="currentColor" opacity="0.85" stroke-width="1.5"/>
      <!-- Top facet -->
      <polygon points="18,4 30,4 36,12 24,12 12,12" fill="white" opacity="0.25" stroke-width="0"/>
      <!-- Facet lines -->
      <line x1="18" y1="4" x2="12" y2="16" stroke="white" stroke-width="0.8" opacity="0.3"/>
      <line x1="30" y1="4" x2="36" y2="16" stroke="white" stroke-width="0.8" opacity="0.3"/>
      <line x1="12" y1="16" x2="36" y2="16" stroke="white" stroke-width="0.8" opacity="0.3"/>
      <line x1="6" y1="24" x2="42" y2="24" stroke="white" stroke-width="0.8" opacity="0.3"/>
      <line x1="24" y1="4" x2="24" y2="44" stroke="white" stroke-width="0.8" opacity="0.2"/>
      <!-- Shine -->
      <polygon points="14,10 20,16 16,20 10,14" fill="white" opacity="0.3" stroke-width="0"/>
    </g>
  </symbol>

  <symbol id="icon-lock" viewBox="0 0 48 48">
    <g fill="none" stroke="currentColor" stroke-linecap="round" stroke-linejoin="round">
      <!-- Shackle -->
      <path d="M14 22 L14 16 C14 8 34 8 34 16 L34 22" stroke-width="3" fill="none"/>
      <!-- Lock body -->
      <rect x="8" y="22" width="32" height="22" rx="4" fill="currentColor" opacity="0.85" stroke-width="1.5"/>
      <!-- Keyhole -->
      <circle cx="24" cy="32" r="4" fill="white" opacity="0.3"/>
      <path d="M22 34 L22 40 L26 40 L26 34" fill="white" opacity="0.3" stroke-width="0"/>
    </g>
  </symbol>

  <symbol id="icon-shield" viewBox="0 0 48 48">
    <g fill="none" stroke="currentColor" stroke-linecap="round" stroke-linejoin="round">
      <!-- Shield outline -->
      <path d="M24 4 L40 10 L40 26 C40 36 32 44 24 46 C16 44 8 36 8 26 L8 10 Z" fill="currentColor" opacity="0.85" stroke-width="1.5"/>
      <!-- Inner border -->
      <path d="M24 9 L36 14 L36 26 C36 33 30 40 24 42 C18 40 12 33 12 26 L12 14 Z" fill="none" stroke="white" stroke-width="1" opacity="0.3"/>
      <!-- Emblem star -->
      <polygon points="24,16 26,22 32,22 27,26 29,32 24,28 19,32 21,26 16,22 22,22" fill="white" opacity="0.5"/>
    </g>
  </symbol>

  <symbol id="icon-sword" viewBox="0 0 48 48">
    <g fill="none" stroke="currentColor" stroke-linecap="round" stroke-linejoin="round">
      <!-- Blade -->
      <path d="M28 8 L40 4 L36 16 L14 38 L10 34 Z" fill="currentColor" opacity="0.85" stroke-width="1"/>
      <!-- Crossguard -->
      <line x1="8" y1="32" x2="22" y2="18" stroke-width="4"/>
      <!-- Handle -->
      <line x1="6" y1="40" x2="12" y2="34" stroke-width="5"/>
      <!-- Pommel -->
      <circle cx="5" cy="43" r="4" fill="currentColor" opacity="0.9"/>
      <!-- Blade shine -->
      <line x1="30" y1="10" x2="20" y2="30" stroke="white" stroke-width="1.5" opacity="0.4"/>
    </g>
  </symbol>

  <symbol id="icon-lightning-bolt" viewBox="0 0 48 48">
    <g fill="none" stroke="currentColor">
      <polygon points="26,4 12,26 22,26 22,44 36,22 26,22" fill="currentColor" opacity="0.9" stroke-width="1"/>
      <line x1="17" y1="26" x2="22" y2="20" stroke="white" stroke-width="1.5" opacity="0.4"/>
    </g>
  </symbol>

  <symbol id="icon-clock" viewBox="0 0 48 48">
    <g fill="none" stroke="currentColor" stroke-linecap="round">
      <circle cx="24" cy="24" r="20" fill="currentColor" opacity="0.1" stroke-width="2"/>
      <circle cx="24" cy="24" r="20" fill="none" stroke-width="2"/>
      <!-- Hour marks -->
      <line x1="24" y1="6" x2="24" y2="10" stroke-width="2"/>
      <line x1="24" y1="38" x2="24" y2="42" stroke-width="2"/>
      <line x1="6" y1="24" x2="10" y2="24" stroke-width="2"/>
      <line x1="38" y1="24" x2="42" y2="24" stroke-width="2"/>
      <!-- Hands -->
      <line x1="24" y1="24" x2="24" y2="12" stroke-width="2.5"/>
      <line x1="24" y1="24" x2="33" y2="24" stroke-width="2"/>
      <circle cx="24" cy="24" r="2" fill="currentColor"/>
    </g>
  </symbol>

  <symbol id="icon-chip-bronze" viewBox="0 0 48 48">
    <g fill="none">
      <circle cx="24" cy="24" r="20" fill="#cd7f32" opacity="0.9"/>
      <circle cx="24" cy="24" r="20" fill="none" stroke="#a0522d" stroke-width="3" stroke-dasharray="4 3"/>
      <circle cx="24" cy="24" r="14" fill="none" stroke="#a0522d" stroke-width="1.5"/>
      <circle cx="24" cy="24" r="10" fill="#cd7f32" opacity="0.8"/>
      <ellipse cx="18" cy="18" rx="3" ry="2" transform="rotate(-35 18 18)" fill="white" opacity="0.3"/>
    </g>
  </symbol>

  <symbol id="icon-chip-silver" viewBox="0 0 48 48">
    <g fill="none">
      <circle cx="24" cy="24" r="20" fill="#aaaaaa" opacity="0.9"/>
      <circle cx="24" cy="24" r="20" fill="none" stroke="#888" stroke-width="3" stroke-dasharray="4 3"/>
      <circle cx="24" cy="24" r="14" fill="none" stroke="#888" stroke-width="1.5"/>
      <circle cx="24" cy="24" r="10" fill="#aaaaaa" opacity="0.8"/>
      <ellipse cx="18" cy="18" rx="3" ry="2" transform="rotate(-35 18 18)" fill="white" opacity="0.4"/>
    </g>
  </symbol>

  <symbol id="icon-chip-gold" viewBox="0 0 48 48">
    <g fill="none">
      <circle cx="24" cy="24" r="20" fill="#FFD700" opacity="0.9"/>
      <circle cx="24" cy="24" r="20" fill="none" stroke="#FFA500" stroke-width="3" stroke-dasharray="4 3"/>
      <circle cx="24" cy="24" r="14" fill="none" stroke="#FFA500" stroke-width="1.5"/>
      <circle cx="24" cy="24" r="10" fill="#FFD700" opacity="0.8"/>
      <ellipse cx="18" cy="18" rx="3" ry="2" transform="rotate(-35 18 18)" fill="white" opacity="0.4"/>
    </g>
  </symbol>

  <symbol id="icon-chip-diamond" viewBox="0 0 48 48">
    <g fill="none">
      <circle cx="24" cy="24" r="20" fill="#00FFFF" opacity="0.85"/>
      <circle cx="24" cy="24" r="20" fill="none" stroke="#00BFFF" stroke-width="3" stroke-dasharray="4 3"/>
      <circle cx="24" cy="24" r="14" fill="none" stroke="#00BFFF" stroke-width="1.5"/>
      <circle cx="24" cy="24" r="10" fill="#00FFFF" opacity="0.7"/>
      <ellipse cx="18" cy="18" rx="3" ry="2" transform="rotate(-35 18 18)" fill="white" opacity="0.5"/>
    </g>
  </symbol>

  <symbol id="icon-arrow-up" viewBox="0 0 48 48">
    <g fill="none" stroke="currentColor" stroke-linecap="round" stroke-linejoin="round">
      <line x1="24" y1="8" x2="24" y2="40" stroke-width="3"/>
      <polyline points="12,20 24,8 36,20" stroke-width="3"/>
    </g>
  </symbol>

  <symbol id="icon-arrow-down" viewBox="0 0 48 48">
    <g fill="none" stroke="currentColor" stroke-linecap="round" stroke-linejoin="round">
      <line x1="24" y1="8" x2="24" y2="40" stroke-width="3"/>
      <polyline points="12,28 24,40 36,28" stroke-width="3"/>
    </g>
  </symbol>

  <symbol id="icon-checkmark" viewBox="0 0 48 48">
    <g fill="none" stroke="currentColor" stroke-linecap="round" stroke-linejoin="round">
      <circle cx="24" cy="24" r="20" fill="currentColor" opacity="0.15" stroke-width="1.5"/>
      <polyline points="12,24 20,34 36,14" stroke-width="3.5"/>
    </g>
  </symbol>

  <symbol id="icon-warning" viewBox="0 0 48 48">
    <g fill="none" stroke="currentColor" stroke-linecap="round" stroke-linejoin="round">
      <polygon points="24,6 44,42 4,42" fill="currentColor" opacity="0.85" stroke-width="1.5"/>
      <line x1="24" y1="20" x2="24" y2="32" stroke="white" stroke-width="3"/>
      <circle cx="24" cy="37" r="2" fill="white"/>
    </g>
  </symbol>

  <symbol id="icon-volume" viewBox="0 0 48 48">
    <g fill="none" stroke="currentColor" stroke-linecap="round" stroke-linejoin="round">
      <!-- Speaker -->
      <path d="M8 18 L8 30 L16 30 L28 40 L28 8 L16 18 Z" fill="currentColor" opacity="0.85" stroke-width="1.5"/>
      <!-- Sound waves -->
      <path d="M34 18 Q40 24 34 30" stroke-width="2.5" fill="none"/>
      <path d="M38 13 Q47 24 38 35" stroke-width="2" fill="none" opacity="0.6"/>
    </g>
  </symbol>

  <symbol id="icon-mute" viewBox="0 0 48 48">
    <g fill="none" stroke="currentColor" stroke-linecap="round" stroke-linejoin="round">
      <!-- Speaker -->
      <path d="M8 18 L8 30 L16 30 L28 40 L28 8 L16 18 Z" fill="currentColor" opacity="0.85" stroke-width="1.5"/>
      <!-- X through waves -->
      <line x1="34" y1="18" x2="44" y2="30" stroke-width="2.5"/>
      <line x1="44" y1="18" x2="34" y2="30" stroke-width="2.5"/>
    </g>
  </symbol>

  <symbol id="icon-close" viewBox="0 0 48 48">
    <g fill="none" stroke="currentColor" stroke-linecap="round">
      <circle cx="24" cy="24" r="20" fill="currentColor" opacity="0.1" stroke-width="1.5"/>
      <line x1="14" y1="14" x2="34" y2="34" stroke-width="3"/>
      <line x1="34" y1="14" x2="14" y2="34" stroke-width="3"/>
    </g>
  </symbol>

  <symbol id="icon-menu" viewBox="0 0 48 48">
    <g fill="none" stroke="currentColor" stroke-linecap="round">
      <line x1="8" y1="14" x2="40" y2="14" stroke-width="3"/>
      <line x1="8" y1="24" x2="40" y2="24" stroke-width="3"/>
      <line x1="8" y1="34" x2="40" y2="34" stroke-width="3"/>
    </g>
  </symbol>

  <symbol id="icon-profile" viewBox="0 0 48 48">
    <g fill="none" stroke="currentColor" stroke-linecap="round" stroke-linejoin="round">
      <!-- Head -->
      <circle cx="24" cy="16" r="10" fill="currentColor" opacity="0.85" stroke-width="1.5"/>
      <!-- Body -->
      <path d="M6 44 C6 34 14 28 24 28 C34 28 42 34 42 44" fill="currentColor" opacity="0.7" stroke-width="1.5"/>
    </g>
  </symbol>

  <symbol id="icon-home" viewBox="0 0 48 48">
    <g fill="none" stroke="currentColor" stroke-linecap="round" stroke-linejoin="round">
      <!-- Roof -->
      <polyline points="4,22 24,6 44,22" stroke-width="2.5"/>
      <!-- Walls -->
      <path d="M8 20 L8 42 L40 42 L40 20" fill="currentColor" opacity="0.8" stroke-width="1.5"/>
      <!-- Door -->
      <rect x="19" y="30" width="10" height="12" rx="2" fill="white" opacity="0.3"/>
      <!-- Chimney -->
      <rect x="30" y="10" width="6" height="10" fill="currentColor" opacity="0.7"/>
    </g>
  </symbol>

  <!-- CASINO SUIT SYMBOLS -->

  <symbol id="icon-card-spade" viewBox="0 0 48 48">
    <g fill="none" stroke="currentColor">
      <path d="M24 6 C24 6 6 16 6 28 C6 34 11 38 17 36 C15 40 14 44 12 46 L36 46 C34 44 33 40 31 36 C37 38 42 34 42 28 C42 16 24 6 24 6 Z" fill="currentColor" opacity="0.9"/>
    </g>
  </symbol>

  <symbol id="icon-card-heart" viewBox="0 0 48 48">
    <g fill="none">
      <path d="M24 42 C24 42 6 28 6 18 C6 12 10 8 16 8 C20 8 24 12 24 12 C24 12 28 8 32 8 C38 8 42 12 42 18 C42 28 24 42 24 42 Z" fill="currentColor" opacity="0.9" stroke="currentColor" stroke-width="1"/>
    </g>
  </symbol>

  <symbol id="icon-card-diamond" viewBox="0 0 48 48">
    <g fill="none">
      <polygon points="24,4 42,24 24,44 6,24" fill="currentColor" opacity="0.9" stroke="currentColor" stroke-width="1"/>
    </g>
  </symbol>

  <symbol id="icon-card-club" viewBox="0 0 48 48">
    <g fill="none">
      <circle cx="24" cy="18" r="10" fill="currentColor" opacity="0.9"/>
      <circle cx="13" cy="28" r="9" fill="currentColor" opacity="0.9"/>
      <circle cx="35" cy="28" r="9" fill="currentColor" opacity="0.9"/>
      <path d="M18 34 C16 40 14 44 12 46 L36 46 C34 44 32 40 30 34 Z" fill="currentColor" opacity="0.9"/>
    </g>
  </symbol>

  <!-- DICE FACES -->

  <symbol id="icon-dice-1" viewBox="0 0 48 48">
    <g fill="none" stroke="currentColor">
      <rect x="4" y="4" width="40" height="40" rx="8" fill="currentColor" opacity="0.15" stroke-width="2"/>
      <circle cx="24" cy="24" r="5" fill="currentColor" opacity="0.9"/>
    </g>
  </symbol>

  <symbol id="icon-dice-2" viewBox="0 0 48 48">
    <g fill="none" stroke="currentColor">
      <rect x="4" y="4" width="40" height="40" rx="8" fill="currentColor" opacity="0.15" stroke-width="2"/>
      <circle cx="14" cy="14" r="4" fill="currentColor" opacity="0.9"/>
      <circle cx="34" cy="34" r="4" fill="currentColor" opacity="0.9"/>
    </g>
  </symbol>

  <symbol id="icon-dice-3" viewBox="0 0 48 48">
    <g fill="none" stroke="currentColor">
      <rect x="4" y="4" width="40" height="40" rx="8" fill="currentColor" opacity="0.15" stroke-width="2"/>
      <circle cx="14" cy="14" r="4" fill="currentColor" opacity="0.9"/>
      <circle cx="24" cy="24" r="4" fill="currentColor" opacity="0.9"/>
      <circle cx="34" cy="34" r="4" fill="currentColor" opacity="0.9"/>
    </g>
  </symbol>

  <symbol id="icon-dice-4" viewBox="0 0 48 48">
    <g fill="none" stroke="currentColor">
      <rect x="4" y="4" width="40" height="40" rx="8" fill="currentColor" opacity="0.15" stroke-width="2"/>
      <circle cx="14" cy="14" r="4" fill="currentColor" opacity="0.9"/>
      <circle cx="34" cy="14" r="4" fill="currentColor" opacity="0.9"/>
      <circle cx="14" cy="34" r="4" fill="currentColor" opacity="0.9"/>
      <circle cx="34" cy="34" r="4" fill="currentColor" opacity="0.9"/>
    </g>
  </symbol>

  <symbol id="icon-dice-5" viewBox="0 0 48 48">
    <g fill="none" stroke="currentColor">
      <rect x="4" y="4" width="40" height="40" rx="8" fill="currentColor" opacity="0.15" stroke-width="2"/>
      <circle cx="14" cy="14" r="4" fill="currentColor" opacity="0.9"/>
      <circle cx="34" cy="14" r="4" fill="currentColor" opacity="0.9"/>
      <circle cx="24" cy="24" r="4" fill="currentColor" opacity="0.9"/>
      <circle cx="14" cy="34" r="4" fill="currentColor" opacity="0.9"/>
      <circle cx="34" cy="34" r="4" fill="currentColor" opacity="0.9"/>
    </g>
  </symbol>

  <symbol id="icon-dice-6" viewBox="0 0 48 48">
    <g fill="none" stroke="currentColor">
      <rect x="4" y="4" width="40" height="40" rx="8" fill="currentColor" opacity="0.15" stroke-width="2"/>
      <circle cx="14" cy="12" r="4" fill="currentColor" opacity="0.9"/>
      <circle cx="34" cy="12" r="4" fill="currentColor" opacity="0.9"/>
      <circle cx="14" cy="24" r="4" fill="currentColor" opacity="0.9"/>
      <circle cx="34" cy="24" r="4" fill="currentColor" opacity="0.9"/>
      <circle cx="14" cy="36" r="4" fill="currentColor" opacity="0.9"/>
      <circle cx="34" cy="36" r="4" fill="currentColor" opacity="0.9"/>
    </g>
  </symbol>

  <!-- Playing card back -->
  <symbol id="icon-playing-card-back" viewBox="0 0 48 48">
    <g fill="none" stroke="currentColor">
      <rect x="4" y="4" width="40" height="40" rx="4" fill="currentColor" opacity="0.2" stroke-width="1.5"/>
      <rect x="7" y="7" width="34" height="34" rx="3" fill="none" stroke="currentColor" stroke-width="1" opacity="0.4"/>
      <!-- Diamond pattern -->
      <path d="M7 7 L41 41 M41 7 L7 41" stroke="currentColor" stroke-width="0.5" opacity="0.2"/>
      <path d="M7 17 L31 41 M17 7 L41 31" stroke="currentColor" stroke-width="0.5" opacity="0.15"/>
      <path d="M7 27 L21 41 M27 7 L41 21" stroke="currentColor" stroke-width="0.5" opacity="0.1"/>
      <!-- Center diamond -->
      <polygon points="24,14 32,24 24,34 16,24" fill="currentColor" opacity="0.3"/>
    </g>
  </symbol>

  <!-- Wink face SVG (for psychological trigger) -->
  <symbol id="icon-wink" viewBox="0 0 48 48">
    <g fill="none" stroke="currentColor" stroke-linecap="round" stroke-linejoin="round">
      <circle cx="24" cy="24" r="20" fill="currentColor" opacity="0.15" stroke-width="2"/>
      <!-- Winking eye (closed) -->
      <path d="M13 20 Q17 17 21 20" stroke-width="2.5" fill="none"/>
      <!-- Open eye -->
      <circle cx="31" cy="20" r="4" fill="currentColor" opacity="0.7"/>
      <circle cx="32" cy="19" r="1.5" fill="white" opacity="0.8"/>
      <!-- Smile -->
      <path d="M14 30 Q24 40 34 30" stroke-width="2.5" fill="none"/>
    </g>
  </symbol>

</svg>
